<svg id="tagcite-logo" xmlns="http://www.w3.org/2000/svg" width="384.05" height="323.42" viewBox="0 0 384.05 323.42"><defs><style>.cls-1,.cls-2{stroke:#fff;stroke-miterlimit:10;}.cls-1{stroke-width:16px;}.cls-2{fill:#fff;stroke-width:2px;}</style></defs><title>logo</title><rect id="Right_Tag" data-name="Right Tag" x="83.15" y="126.66" width="231.77" height="150.29" transform="translate(-79.23 125.14) rotate(-30)"/><rect id="Middle_Tag" data-name="Middle Tag" class="cls-1" x="8" y="8" width="281.06" height="182.25"/><path class="cls-2" d="M70.1,153.84V47.78h34.53V61H86.8v79.71h17.83v13.12Z" transform="translate(-5 -1.4)"/><path class="cls-2" d="M181.65,126.65v13.4H131.14v-13.4h18.73V79.79l-16,10L126.38,77.6l25.06-15.25h15.69v64.3Z" transform="translate(-5 -1.4)"/><path class="cls-2" d="M236.92,47.78V153.84H202.39V140.61h17.83V61H202.39V47.78Z" transform="translate(-5 -1.4)"/><path id="Circle_Wrapper" data-name="Circle Wrapper" d="M389.05,100.52a43.75,43.75,0,1,0-43.75,43.75A43.75,43.75,0,0,0,389.05,100.52Zm-65.71.2a22,22,0,1,1,22,21.83A21.9,21.9,0,0,1,323.34,100.72Z" transform="translate(-5 -1.4)"/></svg>