<?xml version="1.0" encoding="utf-8"?>
<!-- Generator: Adobe Illustrator 23.0.4, SVG Export Plug-In . SVG Version: 6.00 Build 0)  -->
<svg version="1.1" baseProfile="tiny" xmlns="http://www.w3.org/2000/svg" xmlns:xlink="http://www.w3.org/1999/xlink" x="0px"
	 y="0px" viewBox="0 0 334.51 202.82" xml:space="preserve">
<g id="tagcite-logo_copy">
	<polygon stroke="#FFFFFF" stroke-width="20" stroke-miterlimit="10" points="323.3,139.5 323.3,63.07 270.52,10.29 10.08,10.29 
		10.08,192.54 270.26,192.54 	"/>
	<g>
		<path fill="#FFFFFF" stroke="#FFFFFF" stroke-width="2" stroke-miterlimit="10" d="M63.86,147.44V55.38h29.97v11.48H78.36v69.19
			h15.47v11.39H63.86z"/>
		<path fill="#FFFFFF" stroke="#FFFFFF" stroke-width="2" stroke-miterlimit="10" d="M160.68,123.84v11.63h-43.84v-11.63h16.25
			V83.16l-13.87,8.66l-6.52-10.56l21.75-13.23h13.62v55.81H160.68z"/>
		<path fill="#FFFFFF" stroke="#FFFFFF" stroke-width="2" stroke-miterlimit="10" d="M208.65,55.38v92.05h-29.97v-11.48h15.47V66.87
			h-15.47V55.38H208.65z"/>
	</g>
	
		<text transform="matrix(1 0 0 1 39.8146 140.3997)" display="none" fill="#FFFFFF" stroke="#FFFFFF" stroke-width="2" stroke-miterlimit="10" font-family="'FiraCode-Bold'" font-size="112.1126px">[1]</text>
	<path id="Circle_Wrapper_3_" display="none" d="M361.27,98.27c0-24.16-19.59-43.75-43.75-43.75c-24.16,0-43.75,19.59-43.75,43.75
		s19.59,43.75,43.75,43.75C341.69,142.02,361.27,122.43,361.27,98.27z M295.56,98.47c0-12.06,9.83-21.83,21.96-21.83
		c12.13,0,21.96,9.77,21.96,21.83c0,12.05-9.83,21.83-21.96,21.83C305.4,120.3,295.56,110.53,295.56,98.47z"/>
	
		<circle id="Dot_Wrapper_3_" fill="#FFFFFF" stroke="#000000" stroke-width="24" stroke-miterlimit="10" cx="262.46" cy="101.41" r="29.54"/>
</g>
<g id="tagcite-logo" display="none">
	
		<rect id="Right_Tag_2_" x="41.61" y="49.7" transform="matrix(0.9659 -0.2588 0.2588 0.9659 -26.9444 45.0183)" display="inline" width="231.77" height="150.29"/>
	
		<rect id="Middle_Tag_2_" x="-1.79" y="-25.11" display="inline" stroke="#FFFFFF" stroke-width="20" stroke-miterlimit="10" width="281.06" height="182.25"/>
	<g display="inline">
		<path fill="#FFFFFF" stroke="#FFFFFF" stroke-width="2" stroke-miterlimit="10" d="M55.31,119.33V13.27h34.53V26.5H72.02v79.71
			h17.83v13.12H55.31z"/>
		<path fill="#FFFFFF" stroke="#FFFFFF" stroke-width="2" stroke-miterlimit="10" d="M166.86,92.14v13.4h-50.51v-13.4h18.72V45.28
			l-15.98,9.98l-7.51-12.16l25.06-15.25h15.7v64.3H166.86z"/>
		<path fill="#FFFFFF" stroke="#FFFFFF" stroke-width="2" stroke-miterlimit="10" d="M222.13,13.27v106.06H187.6V106.1h17.83V26.5
			H187.6V13.27H222.13z"/>
	</g>
	
		<text transform="matrix(1 0 0 1 39.8146 140.3997)" fill="#FFFFFF" stroke="#FFFFFF" stroke-width="2" stroke-miterlimit="10" font-family="'FiraCode-Bold'" font-size="112.1126px">[1]</text>
	<path id="Circle_Wrapper_2_" display="inline" d="M374.27,66.01c0-24.16-19.59-43.75-43.75-43.75c-24.16,0-43.75,19.59-43.75,43.75
		s19.59,43.75,43.75,43.75C354.68,109.76,374.27,90.17,374.27,66.01z M308.55,66.21c0-12.06,9.83-21.83,21.96-21.83
		c12.13,0,21.96,9.77,21.96,21.83c0,12.05-9.83,21.83-21.96,21.83C318.39,88.04,308.55,78.27,308.55,66.21z"/>
	<circle id="Dot_Wrapper_2_" cx="183.09" cy="-36.49" r="39.67"/>
</g>
<g id="tagcite-logo-orig" display="none">
	
		<rect id="Left_Tag_1_" x="-23.92" y="32.87" transform="matrix(0.4981 -0.8671 0.8671 0.4981 -47.5017 133.954)" display="inline" width="231.77" height="150.29"/>
	
		<rect id="Right_Tag" x="209.22" y="-7.88" transform="matrix(0.8661 -0.4999 0.4999 0.8661 -15.9105 156.6357)" display="inline" width="150.29" height="231.77"/>
	
		<rect id="Middle_Tag" x="91.96" y="12.98" display="inline" stroke="#FFFFFF" stroke-width="16" stroke-miterlimit="10" width="182.25" height="281.06"/>
	
		<text transform="matrix(1 0 0 1 114.4725 169.8705)" display="inline" fill="#FFFFFF" font-family="'SFMono-Heavy'" font-size="74px">[1]</text>
	<path id="Circle_Wrapper" display="inline" d="M183.09-82.01c-24.16,0-43.75,19.59-43.75,43.75c0,24.16,19.59,43.75,43.75,43.75
		s43.75-19.59,43.75-43.75C226.84-62.42,207.25-82.01,183.09-82.01z M183.29-16.3c-12.06,0-21.83-9.83-21.83-21.96
		s9.77-21.96,21.83-21.96c12.05,0,21.83,9.83,21.83,21.96S195.35-16.3,183.29-16.3z"/>
	<circle id="Dot_Wrapper" cx="183.09" cy="-36.49" r="39.67"/>
</g>
<g id="tagcite-logo-horiz" display="none">
	
		<rect id="Left_Tag_2_" x="111.1" y="-106.14" transform="matrix(0.4981 -0.8671 0.8671 0.4981 85.0195 166.3842)" display="inline" width="150.29" height="231.77"/>
	
		<rect id="Right_Tag_1_" x="70.35" y="127.01" transform="matrix(0.8661 -0.4999 0.4999 0.8661 -76.1191 120.1868)" display="inline" width="231.77" height="150.29"/>
	
		<rect id="Middle_Tag_1_" x="0.21" y="9.75" display="inline" stroke="#FFFFFF" stroke-width="16" stroke-miterlimit="10" width="281.06" height="182.25"/>
	<g display="inline">
		<path fill="#FFFFFF" stroke="#FFFFFF" stroke-width="2" stroke-miterlimit="10" d="M57.3,154.19V48.13h34.53v13.23H74.01v79.71
			h17.83v13.12H57.3z"/>
		<path fill="#FFFFFF" stroke="#FFFFFF" stroke-width="2" stroke-miterlimit="10" d="M168.86,127v13.4h-50.51V127h18.72V80.14
			l-15.98,9.98l-7.51-12.16l25.06-15.25h15.7V127H168.86z"/>
		<path fill="#FFFFFF" stroke="#FFFFFF" stroke-width="2" stroke-miterlimit="10" d="M224.13,48.13v106.06H189.6v-13.23h17.83v-79.6
			H189.6V48.13H224.13z"/>
	</g>
	
		<text transform="matrix(1 0 0 1 39.8146 140.3997)" fill="#FFFFFF" stroke="#FFFFFF" stroke-width="2" stroke-miterlimit="10" font-family="'FiraCode-Bold'" font-size="112.1126px">[1]</text>
	<path id="Circle_Wrapper_1_" display="inline" d="M376.26,100.87c0-24.16-19.59-43.75-43.75-43.75
		c-24.16,0-43.75,19.59-43.75,43.75s19.59,43.75,43.75,43.75C356.67,144.62,376.26,125.03,376.26,100.87z M310.55,101.07
		c0-12.06,9.83-21.83,21.96-21.83c12.13,0,21.96,9.77,21.96,21.83c0,12.05-9.83,21.83-21.96,21.83
		C320.38,122.9,310.55,113.13,310.55,101.07z"/>
	<circle id="Dot_Wrapper_1_" cx="183.09" cy="-36.49" r="39.67"/>
</g>
</svg>
