<?xml version="1.0" encoding="utf-8"?>
<!-- Generator: Adobe Illustrator 23.0.4, SVG Export Plug-In . SVG Version: 6.00 Build 0)  -->
<svg version="1.1" id="search-icon" xmlns="http://www.w3.org/2000/svg" xmlns:xlink="http://www.w3.org/1999/xlink" x="0px"
	 y="0px" viewBox="0 0 195 200" style="enable-background:new 0 0 195 200;" xml:space="preserve">
<style type="text/css">
	.st0{fill:#FFFFFF;}
</style>
<g>
	<circle class="st0" cx="81" cy="82" r="67.5"/>
	<path d="M81,28c29.8,0,54,24.2,54,54s-24.2,54-54,54s-54-24.2-54-54S51.2,28,81,28 M81,1C36.3,1,0,37.3,0,82s36.3,81,81,81
		s81-36.3,81-81S125.7,1,81,1L81,1z"/>
</g>
<g>
	
		<rect x="147.2" y="124.6" transform="matrix(0.7071 -0.7071 0.7071 0.7071 -67.5345 155.9794)" class="st0" width="14.7" height="69.9"/>
	<polygon points="135,119 114,140 174,200 195,179 	"/>
</g>
</svg>
